<?xml version="1.0" standalone="no"?>
<!DOCTYPE svg PUBLIC "-//W3C//DTD SVG 20010904//EN"
 "http://www.w3.org/TR/2001/REC-SVG-20010904/DTD/svg10.dtd">
<svg version="1.0" xmlns="http://www.w3.org/2000/svg"
 width="700.000000pt" height="700.000000pt" viewBox="0 0 700.000000 700.000000"
 preserveAspectRatio="xMidYMid meet">
<metadata>
Created by potrace 1.14, written by Peter Selinger 2001-2017
</metadata>
<g transform="translate(0.000000,700.000000) scale(0.100000,-0.100000)"
fill="#000000" stroke="none">
<path d="M5081 3799 c-191 -41 -326 -109 -453 -228 -181 -169 -261 -361 -261
-621 0 -268 73 -466 236 -637 135 -142 303 -243 652 -393 376 -162 465 -221
518 -340 31 -69 29 -180 -5 -246 -45 -86 -122 -143 -243 -180 -81 -25 -273
-25 -365 0 -157 42 -312 158 -410 306 -24 36 -44 66 -46 68 -1 2 -512 -289
-532 -304 -8 -6 53 -109 107 -180 242 -322 618 -493 1081 -494 575 -1 983 270
1074 712 18 89 21 300 6 396 -30 182 -107 331 -239 463 -142 141 -331 253
-681 404 -420 181 -503 253 -504 435 -1 63 4 84 28 133 53 109 171 165 326
154 141 -9 248 -76 335 -208 l47 -70 27 17 c14 10 127 83 251 162 124 80 227
146 229 148 10 9 -112 177 -179 244 -126 129 -250 200 -430 247 -82 22 -121
26 -285 29 -162 3 -204 1 -284 -17z"/>
<path d="M3148 2593 c-3 -1116 -4 -1202 -21 -1250 -25 -73 -74 -133 -137 -168
-52 -29 -61 -30 -175 -30 -108 0 -125 3 -176 26 -72 34 -144 107 -209 213 -29
47 -55 86 -57 86 -7 0 -507 -302 -521 -315 -10 -9 -2 -28 37 -94 104 -172 217
-285 378 -377 284 -162 746 -179 1051 -39 245 114 396 312 465 610 21 88 21
114 24 1313 l4 1222 -330 0 -331 0 -2 -1197z"/>
</g>
</svg>
